<svg width="100" height="32" viewBox="0 0 100 32" fill="none" xmlns="http://www.w3.org/2000/svg">
<g clip-path="url(#clip0_203_3270)">
<path d="M88.0005 15.3826H97.3235C99.5706 15.3826 99.897 14.2783 98.0508 12.9302C92.4029 8.80555 86.7533 4.68092 81.1054 0.556298C80.6854 0.250585 79.9247 0 79.4144 0C77.0754 0 74.7363 0.00167056 72.3989 0.00334113C71.7777 0.00334113 71.6065 0.404277 72.0185 0.895423C75.2244 4.71767 78.4303 8.53826 81.6378 12.3605C83.0324 14.0227 85.8976 15.3842 88.0021 15.3842L88.0005 15.3826Z" fill="white"/>
<path d="M7.92931 25.4945L8.27795 30.4978C8.29696 30.7434 8.34768 30.9422 8.4285 31.0942C8.5109 31.2479 8.62976 31.3565 8.78664 31.4233C8.94353 31.4901 9.14162 31.5169 9.38092 31.5035C9.42529 31.5035 9.44906 31.5302 9.45223 31.5837C9.4554 31.6371 9.4348 31.6639 9.39043 31.6639C9.09408 31.6505 8.75495 31.6422 8.37145 31.6388C7.98794 31.6355 7.60919 31.6355 7.23361 31.6388C6.85962 31.6422 6.53316 31.6472 6.25742 31.6538C6.20037 31.6538 6.17343 31.6271 6.17343 31.5737C6.17343 31.5202 6.20196 31.4935 6.25742 31.4935C6.57278 31.4935 6.83743 31.4166 7.05454 31.2646C7.27165 31.1126 7.36673 30.8536 7.34296 30.4895L6.94678 24.8697L7.07831 24.8095L4.37952 31.7223C4.37318 31.7491 4.35892 31.7608 4.33673 31.7574C4.31455 31.7541 4.29711 31.739 4.28444 31.7123L1.73619 25.3358C1.62209 25.0568 1.48898 24.8463 1.33526 24.7043C1.18154 24.5623 1.00247 24.4621 0.798036 24.4053C0.593606 24.3485 0.362236 24.3134 0.103925 24.3C0.0658917 24.3 0.046875 24.2733 0.046875 24.2198C0.046875 24.1664 0.0658917 24.1396 0.103925 24.1396C0.474751 24.1664 0.821806 24.1764 1.14668 24.1697C1.46996 24.163 1.83762 24.1597 2.24648 24.1597C2.29719 24.1597 2.34156 24.163 2.37959 24.1697C2.41763 24.1764 2.43981 24.2065 2.44615 24.2599C2.46517 24.412 2.50479 24.5623 2.56342 24.7076C2.62206 24.853 2.67752 24.9933 2.72823 25.1253L4.37001 29.2833C4.43974 29.4487 4.5063 29.6174 4.57286 29.7912C4.63941 29.9649 4.70122 30.1353 4.75668 30.309H4.62515L6.90874 24.2816C6.9341 24.2081 6.98164 24.1731 7.04978 24.1731C7.33979 24.1797 7.63772 24.1831 7.94674 24.1831C8.25576 24.1831 8.53784 24.1764 8.79615 24.163C8.8532 24.1564 8.88331 24.1814 8.88648 24.2382C8.88965 24.295 8.86588 24.3234 8.81517 24.3234C8.45068 24.3301 8.20347 24.4136 8.07352 24.5723C7.94515 24.731 7.89603 25.0401 7.92772 25.4978L7.92931 25.4945ZM1.84237 24.6391L2.10702 25.0067L1.6728 30.4978C1.64745 30.8704 1.72035 31.1326 1.88991 31.2897C2.05948 31.445 2.29243 31.5169 2.58878 31.5035C2.63315 31.5035 2.65534 31.5302 2.66009 31.5837C2.66326 31.6371 2.64266 31.6639 2.59829 31.6639C2.17675 31.6438 1.78057 31.6338 1.40974 31.6338C1.03891 31.6338 0.65858 31.6405 0.268737 31.6538C0.211687 31.6538 0.183162 31.6271 0.183162 31.5737C0.183162 31.5202 0.211687 31.4935 0.268737 31.4935C0.582513 31.4935 0.836069 31.4166 1.02782 31.2646C1.21957 31.1126 1.32733 30.8536 1.35269 30.4895L1.84396 24.6408L1.84237 24.6391Z" fill="white"/>
<path d="M15.0651 31.662C15.008 31.662 14.9795 31.6386 14.9795 31.5919C14.9795 31.5451 15.0017 31.5184 15.0461 31.5117C15.1712 31.4983 15.3059 31.4649 15.447 31.4114C15.588 31.358 15.7386 31.2344 15.8955 31.0389C16.0524 30.8434 16.2187 30.5294 16.3962 30.0984L18.5752 24.7659L18.7258 25.1335C18.374 25.9554 18.0317 26.789 17.7021 27.6343C17.3724 28.4796 17.046 29.3232 16.7259 30.1652C16.5817 30.5361 16.5198 30.8201 16.542 31.0155C16.5642 31.211 16.645 31.3429 16.7877 31.4081C16.9303 31.4732 17.1014 31.5083 17.3027 31.5083C17.3534 31.5083 17.3788 31.5351 17.3788 31.5885C17.3788 31.642 17.3534 31.6687 17.3027 31.6687C17.1078 31.6553 16.8732 31.647 16.5991 31.6436C16.3249 31.6403 16.0524 31.6403 15.7782 31.6436C15.504 31.647 15.2663 31.652 15.0651 31.6587V31.662ZM19.8303 31.662C19.786 31.662 19.7654 31.6353 19.7685 31.5818C19.7717 31.5284 19.7923 31.5016 19.8303 31.5016C20.0443 31.495 20.2202 31.4599 20.3596 31.3964C20.4975 31.3329 20.5752 31.2043 20.591 31.0088C20.6069 30.8134 20.5324 30.5194 20.3691 30.1284L18.4817 25.5929C18.3249 25.2086 18.1664 24.923 18.0047 24.7375C17.8447 24.5521 17.6561 24.4285 17.439 24.37C17.2219 24.3115 16.943 24.2798 16.6038 24.2798C16.5531 24.2798 16.5278 24.2531 16.5278 24.1996C16.5278 24.1462 16.5531 24.1211 16.6038 24.1211C16.9937 24.1278 17.3914 24.1328 17.7971 24.1361C18.2028 24.1395 18.6006 24.1361 18.9904 24.1311C19.0411 24.1311 19.0665 24.1545 19.0665 24.2013C19.0665 24.3667 19.0855 24.5087 19.1236 24.6239C19.1616 24.7392 19.2123 24.8745 19.2741 25.0265L21.3216 29.9898C21.4911 30.4007 21.6369 30.7165 21.7605 30.9353C21.8826 31.1542 22.0078 31.3029 22.133 31.383C22.2581 31.4632 22.4103 31.5067 22.5862 31.5133C22.6242 31.5133 22.6432 31.5401 22.6432 31.5935C22.6432 31.647 22.6242 31.6737 22.5862 31.6737C22.3215 31.6537 22.0268 31.6403 21.6987 31.6336C21.3723 31.6269 21.0442 31.6253 20.7178 31.6286C20.3913 31.632 20.095 31.6436 19.8303 31.6637V31.662ZM20.198 28.9056C19.179 28.8989 18.16 28.8989 17.1411 28.9056V28.5965C18.1664 28.6166 19.1854 28.6166 20.198 28.5965V28.9056Z" fill="white"/>
<path d="M35.8315 31.5018C35.8632 31.5018 35.879 31.5285 35.879 31.582C35.879 31.6354 35.8632 31.6622 35.8315 31.6622C34.8996 31.6288 33.9821 31.6288 33.0756 31.6622C33.0249 31.6622 32.9996 31.6354 32.9996 31.582C32.9996 31.5285 33.0249 31.5018 33.0756 31.5018C33.2389 31.5018 33.3751 31.4717 33.4813 31.4116C33.5891 31.3515 33.6683 31.2278 33.7222 31.0391C33.7761 30.8503 33.803 30.5629 33.803 30.1787V27.6027C32.7333 27.5626 31.6636 27.5626 30.5939 27.6027V30.2689C30.5939 30.593 30.6193 30.8403 30.67 31.0107C30.7207 31.1794 30.7889 31.2997 30.8729 31.3682C30.9568 31.4383 31.0535 31.4767 31.1597 31.4868C31.2675 31.4968 31.38 31.5018 31.5004 31.5018C31.5321 31.5018 31.548 31.5285 31.548 31.582C31.548 31.6354 31.5321 31.6622 31.5004 31.6622C31.0408 31.6622 30.5718 31.6588 30.0948 31.6522C29.6162 31.6455 29.1503 31.6488 28.6986 31.6622C28.6352 31.6622 28.6051 31.6354 28.6051 31.582C28.6051 31.5285 28.6368 31.5018 28.6986 31.5018C28.9189 31.5018 29.0995 31.4701 29.2422 31.4066C29.3832 31.3431 29.4894 31.2161 29.5575 31.024C29.6273 30.8319 29.6621 30.5429 29.6621 30.1587V25.5329C29.6621 25.1754 29.6067 24.9098 29.4973 24.7377C29.388 24.5656 29.2438 24.452 29.0679 24.4002C28.8919 24.3484 28.7034 24.32 28.5021 24.32C28.4577 24.32 28.4355 24.2933 28.4355 24.2399C28.4355 24.1864 28.4577 24.1597 28.5021 24.1597C28.949 24.1664 29.4276 24.173 29.9363 24.1797C30.445 24.1864 30.9458 24.1797 31.437 24.1597C31.4988 24.1597 31.5305 24.1864 31.5305 24.2399C31.5305 24.2933 31.4988 24.32 31.437 24.32C31.1534 24.32 30.9426 24.4119 30.8047 24.594C30.6653 24.7761 30.5971 25.0701 30.5971 25.4744V27.2853C31.6668 27.3187 32.7365 27.3187 33.8062 27.2853V25.5446C33.8062 25.1871 33.7634 24.9198 33.6794 24.7444C33.5938 24.569 33.4861 24.4487 33.353 24.3869C33.2198 24.3251 33.0756 24.2916 32.9187 24.2916C32.887 24.2916 32.8712 24.2699 32.8712 24.2265C32.8712 24.1831 32.887 24.1613 32.9187 24.1613C33.177 24.1747 33.4797 24.1847 33.83 24.1914C34.1802 24.1981 34.5304 24.1981 34.8822 24.1914C35.234 24.1847 35.5399 24.1747 35.7982 24.1613C35.8616 24.1613 35.8933 24.1881 35.8933 24.2415C35.8933 24.295 35.8616 24.3217 35.7982 24.3217C35.44 24.3217 35.1738 24.4136 35.0011 24.5957C34.8283 24.7778 34.7412 25.0685 34.7412 25.4661V30.2706C34.7412 30.5947 34.7713 30.8419 34.8299 31.0123C34.8901 31.1811 34.971 31.3013 35.0756 31.3698C35.1786 31.44 35.2974 31.4784 35.4289 31.4884C35.5605 31.4985 35.6968 31.5035 35.8346 31.5035L35.8315 31.5018Z" fill="white"/>
<path d="M45.7019 24.0327C46.2487 24.0327 46.7431 24.153 47.1836 24.3952C47.6242 24.6375 47.9982 24.9565 48.3072 25.3558C48.6147 25.7534 48.8524 26.1911 49.0188 26.6689C49.1852 27.1466 49.2692 27.6177 49.2692 28.0822C49.2692 28.6201 49.1661 29.1129 48.9617 29.564C48.7573 30.015 48.4815 30.4059 48.1361 30.7384C47.7906 31.0708 47.4023 31.3297 46.9761 31.5152C46.5482 31.7006 46.1108 31.7942 45.6639 31.7942C45.1853 31.7942 44.7305 31.6906 44.301 31.4851C43.87 31.2796 43.4897 30.999 43.1584 30.6448C42.8288 30.2907 42.5689 29.8847 42.3803 29.427C42.1918 28.9692 42.0967 28.4881 42.0967 27.9836C42.0967 27.6461 42.1426 27.2937 42.233 26.9295C42.3233 26.5653 42.4643 26.2111 42.6529 25.8703C42.8415 25.5295 43.0792 25.2188 43.366 24.9398C43.6529 24.6608 43.9904 24.4403 44.3803 24.2783C44.7701 24.1162 45.2107 24.0344 45.7019 24.0344V24.0327ZM45.6179 24.3301C45.133 24.3301 44.7083 24.4721 44.3438 24.7577C43.9793 25.0434 43.6957 25.4443 43.4944 25.9622C43.2931 26.4801 43.1917 27.0865 43.1917 27.7831C43.1917 28.5265 43.3042 29.1764 43.5277 29.7327C43.7511 30.289 44.0522 30.7217 44.4342 31.0307C44.8145 31.3398 45.2376 31.4935 45.7035 31.4935C46.0743 31.4935 46.4119 31.3982 46.7177 31.2044C47.0236 31.0123 47.2835 30.745 47.5006 30.4042C47.7177 30.0618 47.8841 29.6642 48.0014 29.2098C48.1171 28.7554 48.1757 28.2693 48.1757 27.7531C48.1757 27.1032 48.0838 26.5185 47.9015 26.0023C47.7193 25.4844 47.4388 25.0768 47.0616 24.7795C46.6845 24.4804 46.2027 24.3317 45.6179 24.3317V24.3301Z" fill="white"/>
<path d="M59.1661 29.1547C58.9458 28.8356 58.7557 28.5967 58.5956 28.438C58.4356 28.2793 58.2787 28.1707 58.1234 28.1156C57.9681 28.0605 57.789 28.0304 57.5814 28.0304H57.1852V29.6626C57.1852 30.147 57.2153 30.5229 57.2755 30.7919C57.3358 31.0608 57.4404 31.2463 57.5925 31.3498C57.7446 31.4534 57.9506 31.4968 58.2153 31.4835C58.266 31.4768 58.2961 31.5019 58.3056 31.5587C58.3151 31.6155 58.285 31.6438 58.2153 31.6438C57.6923 31.6305 57.1995 31.6271 56.7336 31.6338C56.2677 31.6405 55.7764 31.6505 55.2614 31.6639C55.2043 31.6639 55.1758 31.6372 55.1758 31.5837C55.1758 31.5303 55.2043 31.5035 55.2614 31.5035C55.5197 31.5035 55.7209 31.4501 55.8651 31.3448C56.0093 31.2396 56.1108 31.0525 56.1678 30.7885C56.2249 30.5229 56.2534 30.1554 56.2534 29.6843V26.0742C56.2534 25.6231 56.2249 25.274 56.1678 25.0251C56.1108 24.7762 56.0093 24.6007 55.8604 24.4972C55.713 24.3953 55.507 24.3435 55.2423 24.3435C55.2106 24.3435 55.1948 24.3168 55.1948 24.2633C55.1948 24.2098 55.2106 24.1831 55.2423 24.1831C55.6766 24.2032 56.1377 24.2115 56.6242 24.2082C57.1123 24.2048 57.5766 24.1998 58.0156 24.1931C58.5005 24.1864 58.9205 24.265 59.2755 24.427C59.6304 24.5891 59.9046 24.8129 60.0964 25.0986C60.2881 25.3842 60.3848 25.705 60.3848 26.0642C60.3848 26.4033 60.3087 26.6923 60.1582 26.9345C60.0076 27.1768 59.8127 27.3705 59.5734 27.5159C59.3341 27.6612 59.0853 27.7581 58.8286 27.8049C58.7905 27.8116 58.7668 27.83 58.7573 27.86C58.7478 27.8901 58.7652 27.9118 58.8096 27.9252C59.1249 28.0054 59.3943 28.1307 59.6209 28.3027C59.8476 28.4748 60.0615 28.7103 60.2628 29.0094L61.3958 30.69C61.5274 30.8821 61.6732 31.0391 61.8301 31.1627C61.9869 31.2847 62.1549 31.3749 62.3308 31.4317C62.5067 31.4885 62.6858 31.5135 62.8696 31.5069C62.914 31.5069 62.9362 31.5319 62.9409 31.582C62.9441 31.6322 62.9203 31.6606 62.8696 31.6672C62.5796 31.6606 62.2801 31.6555 61.9679 31.6522C61.6573 31.6489 61.3309 31.6522 60.9917 31.6672C60.9474 31.6672 60.9125 31.6505 60.8887 31.6171L59.1709 29.1597L59.1661 29.1547ZM57.1852 24.4604V27.1166C57.1852 27.3622 57.2486 27.5393 57.3738 27.6495C57.499 27.7581 57.6717 27.8132 57.892 27.8132C58.3199 27.8132 58.6701 27.6679 58.9443 27.3756C59.2184 27.0832 59.3547 26.6756 59.3547 26.151C59.3547 25.832 59.2992 25.5463 59.1899 25.2907C59.079 25.0351 58.9031 24.833 58.6606 24.6843C58.4181 24.5356 58.0996 24.4604 57.7034 24.4604H57.1836H57.1852Z" fill="white"/>
<path d="M67.7828 31.662C67.7258 31.662 67.6973 31.6386 67.6973 31.5919C67.6973 31.5451 67.7194 31.5184 67.7638 31.5117C67.889 31.4983 68.0237 31.4649 68.1648 31.4114C68.3058 31.358 68.4563 31.2344 68.6132 31.0389C68.7701 30.8434 68.9365 30.5294 69.114 30.0984L71.293 24.7659L71.4436 25.1335C71.0917 25.9554 70.7494 26.789 70.4198 27.6343C70.0902 28.4796 69.7637 29.3232 69.4436 30.1652C69.2994 30.5361 69.2376 30.8201 69.2598 31.0155C69.282 31.211 69.3628 31.3429 69.5054 31.4081C69.6481 31.4732 69.8192 31.5083 70.0205 31.5083C70.0712 31.5083 70.0965 31.5351 70.0965 31.5885C70.0965 31.642 70.0712 31.6687 70.0205 31.6687C69.8256 31.6553 69.591 31.647 69.3169 31.6436C69.0427 31.6403 68.7701 31.6403 68.496 31.6436C68.2218 31.647 67.9841 31.652 67.7828 31.6587V31.662ZM72.5481 31.662C72.5037 31.662 72.4831 31.6353 72.4863 31.5818C72.4895 31.5284 72.5101 31.5016 72.5481 31.5016C72.7621 31.495 72.938 31.4599 73.0774 31.3964C73.2153 31.3329 73.2929 31.2043 73.3088 31.0088C73.3246 30.8134 73.2502 30.5194 73.0869 30.1284L71.1995 25.5929C71.0426 25.2086 70.8842 24.923 70.7225 24.7375C70.5625 24.5521 70.3739 24.4285 70.1568 24.37C69.9397 24.3115 69.6607 24.2798 69.3216 24.2798C69.2709 24.2798 69.2455 24.2531 69.2455 24.1996C69.2455 24.1462 69.2709 24.1211 69.3216 24.1211C69.7115 24.1278 70.1092 24.1328 70.5149 24.1361C70.9206 24.1395 71.3184 24.1361 71.7082 24.1311C71.7589 24.1311 71.7843 24.1545 71.7843 24.2013C71.7843 24.3667 71.8033 24.5087 71.8413 24.6239C71.8794 24.7392 71.9301 24.8745 71.9919 25.0265L74.0393 29.9898C74.2089 30.4007 74.3547 30.7165 74.4783 30.9353C74.6003 31.1542 74.7255 31.3029 74.8507 31.383C74.9759 31.4632 75.1281 31.5067 75.304 31.5133C75.342 31.5133 75.361 31.5401 75.361 31.5935C75.361 31.647 75.342 31.6737 75.304 31.6737C75.0393 31.6537 74.7445 31.6403 74.4165 31.6336C74.0901 31.6269 73.762 31.6253 73.4356 31.6286C73.1091 31.632 72.8128 31.6436 72.5481 31.6637V31.662ZM72.9158 28.9056C71.8968 28.8989 70.8778 28.8989 69.8588 28.9056V28.5965C70.8841 28.6166 71.9031 28.6166 72.9158 28.5965V28.9056Z" fill="white"/>
<path d="M61.4129 1.86247C61.1055 2.54406 57.9836 8.98074 50.743 12.2267C38.7593 17.5992 32.5519 1.64362 20.359 0.918596C9.30552 0.263735 1.63861 8.67837 0.648153 9.82438C0.608535 9.87115 0 10.5294 0 11.525C0 12.8882 1.04909 13.9941 2.34223 13.9941C3.11874 13.9941 3.68766 13.5614 3.83029 13.4378C3.83029 13.4378 7.70177 10.0399 8.903 9.1478C31.3412 -7.47599 37.1809 24.5103 55.7396 10.8601L55.7856 10.8267C58.3481 8.88886 60.4542 6.81903 61.6681 5.65799C63.0341 4.35161 61.4145 1.86247 61.4145 1.86247H61.4129Z" fill="white"/>
</g>
<defs>
<clipPath id="clip0_203_3270">
<rect width="100" height="32" fill="white"/>
</clipPath>
</defs>
</svg>
